<svg width="300" height="300" viewBox="0 0 300 300" fill="none" xmlns="http://www.w3.org/2000/svg">
<g clip-path="url(#clip0_190_12634)">
<rect width="300" height="300" rx="16" fill="#004EF3"/>
<g filter="url(#filter0_d_190_12634)">
<path d="M232.572 -4.13627H175.521C172.472 -4.13627 170 -1.66439 170 1.38482V22.549C170 23.9466 171.133 25.0795 172.531 25.0795C173.928 25.0795 175.061 26.2124 175.061 27.61V27.8401C175.061 29.3647 176.297 30.6006 177.822 30.6006H233.032C236.082 30.6006 238.554 33.0725 238.554 36.1217V49.4643C238.554 52.5135 241.025 54.9854 244.075 54.9854H263.859C266.908 54.9854 269.38 52.5135 269.38 49.4643V47.3939C269.38 44.3447 271.852 41.8728 274.901 41.8728H288.473C291.523 41.8728 293.995 39.4009 293.995 36.3517V36.1217C293.995 33.0725 296.466 30.6006 299.516 30.6006H359.557C362.607 30.6006 365.079 28.1287 365.079 25.0795V3.16764C365.079 1.80186 363.971 0.694685 362.606 0.694685C361.286 0.694685 360.198 -0.342094 360.135 -1.66065L360.133 -1.72079C360.068 -3.07302 358.953 -4.13627 357.599 -4.13627H299.516C296.466 -4.13627 293.995 -6.60815 293.995 -9.65736V-17.4789C293.995 -20.5281 291.523 -23 288.473 -23H243.615C240.565 -23 238.093 -20.5281 238.093 -17.4789V-9.65736C238.093 -6.60815 235.622 -4.13627 232.572 -4.13627Z" fill="url(#paint0_linear_190_12634)"/>
<path d="M232.572 -4.13627H175.521C172.472 -4.13627 170 -1.66439 170 1.38482V22.549C170 23.9466 171.133 25.0795 172.531 25.0795C173.928 25.0795 175.061 26.2124 175.061 27.61V27.8401C175.061 29.3647 176.297 30.6006 177.822 30.6006H233.032C236.082 30.6006 238.554 33.0725 238.554 36.1217V49.4643C238.554 52.5135 241.025 54.9854 244.075 54.9854H263.859C266.908 54.9854 269.38 52.5135 269.38 49.4643V47.3939C269.38 44.3447 271.852 41.8728 274.901 41.8728H288.473C291.523 41.8728 293.995 39.4009 293.995 36.3517V36.1217C293.995 33.0725 296.466 30.6006 299.516 30.6006H359.557C362.607 30.6006 365.079 28.1287 365.079 25.0795V3.16764C365.079 1.80186 363.971 0.694685 362.606 0.694685C361.286 0.694685 360.198 -0.342094 360.135 -1.66065L360.133 -1.72079C360.068 -3.07302 358.953 -4.13627 357.599 -4.13627H299.516C296.466 -4.13627 293.995 -6.60815 293.995 -9.65736V-17.4789C293.995 -20.5281 291.523 -23 288.473 -23H243.615C240.565 -23 238.093 -20.5281 238.093 -17.4789V-9.65736C238.093 -6.60815 235.622 -4.13627 232.572 -4.13627Z" fill="#004AD6"/>
</g>
<g filter="url(#filter1_d_190_12634)">
<path d="M-10.5683 263.21H-72.4789C-75.5281 263.21 -78 265.682 -78 268.731V291.8C-78 293.297 -76.7862 294.511 -75.2889 294.511C-73.7916 294.511 -72.5778 295.724 -72.5778 297.222V297.468C-72.5778 299.102 -71.2537 300.426 -69.6203 300.426H-10.0753C-7.02612 300.426 -4.55424 302.898 -4.55424 305.947V321.03C-4.55424 324.079 -2.08237 326.551 0.96685 326.551H22.9506C25.9998 326.551 28.4717 324.079 28.4717 321.03V318.023C28.4717 314.974 30.9436 312.502 33.9928 312.502H49.3221C52.3713 312.502 54.8432 310.03 54.8432 306.981V305.947C54.8432 302.898 57.315 300.426 60.3643 300.426H125.479C128.528 300.426 131 297.954 131 294.905V271.035C131 269.572 129.814 268.386 128.351 268.386C126.936 268.386 125.771 267.275 125.704 265.862L125.701 265.798C125.632 264.349 124.437 263.21 122.987 263.21H60.3643C57.315 263.21 54.8432 260.738 54.8432 257.689V248.521C54.8432 245.472 52.3713 243 49.3221 243H0.473923C-2.57529 243 -5.04716 245.472 -5.04716 248.521V257.689C-5.04716 260.738 -7.51904 263.21 -10.5683 263.21Z" fill="#004AD6"/>
</g>
<g filter="url(#filter2_d_190_12634)">
<path d="M-12.4004 -5.75836H-64.3095C-67.0839 -5.75836 -69.333 -3.50928 -69.333 -0.734898V18.5217C-69.333 19.7933 -68.3022 20.8242 -67.0306 20.8242C-65.759 20.8242 -64.7282 21.855 -64.7282 23.1266V23.3359C-64.7282 24.7231 -63.6036 25.8476 -62.2164 25.8476H-11.9818C-9.20737 25.8476 -6.95829 28.0967 -6.95829 30.8711V43.0111C-6.95829 45.7855 -4.70921 48.0346 -1.93482 48.0346H16.0659C18.8403 48.0346 21.0894 45.7855 21.0894 43.0111V41.1273C21.0894 38.3529 23.3385 36.1039 26.1129 36.1039H38.4622C41.2366 36.1039 43.4857 33.8548 43.4857 31.0804V30.8711C43.4857 28.0967 45.7348 25.8476 48.5092 25.8476H103.139C105.914 25.8476 108.163 23.5985 108.163 20.8242V0.887238C108.163 -0.35544 107.155 -1.36283 105.913 -1.36283C104.712 -1.36283 103.722 -2.30616 103.665 -3.50587L103.663 -3.5606C103.604 -4.79094 102.589 -5.75836 101.358 -5.75836H48.5092C45.7348 -5.75836 43.4857 -8.00744 43.4857 -10.7818V-17.8984C43.4857 -20.6728 41.2366 -22.9219 38.4622 -22.9219H-2.35345C-5.12783 -22.9219 -7.37691 -20.6728 -7.37691 -17.8984V-10.7818C-7.37691 -8.00744 -9.626 -5.75836 -12.4004 -5.75836Z" fill="#004AD6"/>
</g>
<g filter="url(#filter3_d_190_12634)">
<path d="M304.677 285.875H364.386C367.577 285.875 370.164 283.288 370.164 280.097V257.947C370.164 256.484 368.978 255.298 367.516 255.298C366.053 255.298 364.867 254.113 364.867 252.65V252.409C364.867 250.814 363.574 249.52 361.978 249.52H304.196C301.005 249.52 298.418 246.933 298.418 243.742V229.778C298.418 226.587 295.831 224 292.639 224H271.934C268.743 224 266.156 226.587 266.156 229.778V231.945C266.156 235.136 263.569 237.723 260.378 237.723H246.173C242.982 237.723 240.395 240.31 240.395 243.501V243.742C240.395 246.933 237.808 249.52 234.616 249.52H171.778C168.587 249.52 166 252.107 166 255.298V278.231C166 279.66 167.159 280.819 168.588 280.819C169.969 280.819 171.107 281.904 171.173 283.284L171.176 283.347C171.243 284.762 172.411 285.875 173.827 285.875H234.616C237.808 285.875 240.395 288.462 240.395 291.653V299.839C240.395 303.03 242.982 305.617 246.173 305.617H293.121C296.312 305.617 298.899 303.03 298.899 299.839V291.653C298.899 288.462 301.486 285.875 304.677 285.875Z" fill="#004AD6"/>
</g>
<g filter="url(#filter4_d_190_12634)">
<path d="M124.437 91.3008H136.562V76.3008H149.812V91.3008H163.062V104.176H124.437V91.3008ZM163.062 104.176H175.938V117.051H163.062V104.176ZM124.437 104.176V129.926H111.562V104.176H124.437ZM124.437 129.926H163.062V142.801H124.437V129.926ZM163.062 142.801H175.938V168.551H163.062V142.801ZM163.062 168.551V181.426H149.187V196.301H135.312V181.426H124.437V168.551H163.062ZM124.437 168.551H111.562V155.676H124.437V168.551Z" fill="url(#paint1_linear_190_12634)"/>
<path d="M124.437 89.4258H122.562V91.3008V102.301H111.562H109.688V104.176V129.926V131.801H111.562H122.562V142.801V144.676H124.437H161.187V166.676H126.312V155.676V153.801H124.437H111.562H109.688V155.676V168.551V170.426H111.562H122.562V181.426V183.301H124.437H133.438V196.301V198.176H135.312H149.187H151.062V196.301V183.301H163.062H164.937V181.426V170.426H175.938H177.812V168.551V142.801V140.926H175.938H164.937V129.926V128.051H163.062H126.312V106.051H161.187V117.051V118.926H163.062H175.938H177.812V117.051V104.176V102.301H175.938H164.937V91.3008V89.4258H163.062H151.688V76.3008V74.4258H149.812H136.562H134.688V76.3008V89.4258H124.437Z" stroke="black" stroke-width="3.75"/>
<path d="M124.437 89.4258H122.562V91.3008V102.301H111.562H109.688V104.176V129.926V131.801H111.562H122.562V142.801V144.676H124.437H161.187V166.676H126.312V155.676V153.801H124.437H111.562H109.688V155.676V168.551V170.426H111.562H122.562V181.426V183.301H124.437H133.438V196.301V198.176H135.312H149.187H151.062V196.301V183.301H163.062H164.937V181.426V170.426H175.938H177.812V168.551V142.801V140.926H175.938H164.937V129.926V128.051H163.062H126.312V106.051H161.187V117.051V118.926H163.062H175.938H177.812V117.051V104.176V102.301H175.938H164.937V91.3008V89.4258H163.062H151.688V76.3008V74.4258H149.812H136.562H134.688V76.3008V89.4258H124.437Z" stroke="#004AD6" stroke-width="3.75"/>
</g>
</g>
<defs>
<filter id="filter0_d_190_12634" x="170" y="-23" width="195.078" height="81.9058" filterUnits="userSpaceOnUse" color-interpolation-filters="sRGB">
<feFlood flood-opacity="0" result="BackgroundImageFix"/>
<feColorMatrix in="SourceAlpha" type="matrix" values="0 0 0 0 0 0 0 0 0 0 0 0 0 0 0 0 0 0 127 0" result="hardAlpha"/>
<feOffset dy="3.92045"/>
<feComposite in2="hardAlpha" operator="out"/>
<feColorMatrix type="matrix" values="0 0 0 0 0 0 0 0 0 0.0980392 0 0 0 0 0.796078 0 0 0 1 0"/>
<feBlend mode="normal" in2="BackgroundImageFix" result="effect1_dropShadow_190_12634"/>
<feBlend mode="normal" in="SourceGraphic" in2="effect1_dropShadow_190_12634" result="shape"/>
</filter>
<filter id="filter1_d_190_12634" x="-78" y="239.079" width="209" height="87.4714" filterUnits="userSpaceOnUse" color-interpolation-filters="sRGB">
<feFlood flood-opacity="0" result="BackgroundImageFix"/>
<feColorMatrix in="SourceAlpha" type="matrix" values="0 0 0 0 0 0 0 0 0 0 0 0 0 0 0 0 0 0 127 0" result="hardAlpha"/>
<feOffset dy="-3.92063"/>
<feComposite in2="hardAlpha" operator="out"/>
<feColorMatrix type="matrix" values="0 0 0 0 0 0 0 0 0 0.0980392 0 0 0 0 0.796078 0 0 0 1 0"/>
<feBlend mode="normal" in2="BackgroundImageFix" result="effect1_dropShadow_190_12634"/>
<feBlend mode="normal" in="SourceGraphic" in2="effect1_dropShadow_190_12634" result="shape"/>
</filter>
<filter id="filter2_d_190_12634" x="-69.333" y="-22.9219" width="177.496" height="74.5231" filterUnits="userSpaceOnUse" color-interpolation-filters="sRGB">
<feFlood flood-opacity="0" result="BackgroundImageFix"/>
<feColorMatrix in="SourceAlpha" type="matrix" values="0 0 0 0 0 0 0 0 0 0 0 0 0 0 0 0 0 0 127 0" result="hardAlpha"/>
<feOffset dy="3.56709"/>
<feComposite in2="hardAlpha" operator="out"/>
<feColorMatrix type="matrix" values="0 0 0 0 0 0 0 0 0 0.0980392 0 0 0 0 0.796078 0 0 0 1 0"/>
<feBlend mode="normal" in2="BackgroundImageFix" result="effect1_dropShadow_190_12634"/>
<feBlend mode="normal" in="SourceGraphic" in2="effect1_dropShadow_190_12634" result="shape"/>
</filter>
<filter id="filter3_d_190_12634" x="166" y="219.897" width="204.164" height="85.7206" filterUnits="userSpaceOnUse" color-interpolation-filters="sRGB">
<feFlood flood-opacity="0" result="BackgroundImageFix"/>
<feColorMatrix in="SourceAlpha" type="matrix" values="0 0 0 0 0 0 0 0 0 0 0 0 0 0 0 0 0 0 127 0" result="hardAlpha"/>
<feOffset dy="-4.10342"/>
<feComposite in2="hardAlpha" operator="out"/>
<feColorMatrix type="matrix" values="0 0 0 0 0 0 0 0 0 0.0980392 0 0 0 0 0.796078 0 0 0 1 0"/>
<feBlend mode="normal" in2="BackgroundImageFix" result="effect1_dropShadow_190_12634"/>
<feBlend mode="normal" in="SourceGraphic" in2="effect1_dropShadow_190_12634" result="shape"/>
</filter>
<filter id="filter4_d_190_12634" x="107.812" y="72.5508" width="71.875" height="132.388" filterUnits="userSpaceOnUse" color-interpolation-filters="sRGB">
<feFlood flood-opacity="0" result="BackgroundImageFix"/>
<feColorMatrix in="SourceAlpha" type="matrix" values="0 0 0 0 0 0 0 0 0 0 0 0 0 0 0 0 0 0 127 0" result="hardAlpha"/>
<feOffset dy="4.88813"/>
<feComposite in2="hardAlpha" operator="out"/>
<feColorMatrix type="matrix" values="0 0 0 0 0 0 0 0 0 0.0980392 0 0 0 0 0.796078 0 0 0 1 0"/>
<feBlend mode="normal" in2="BackgroundImageFix" result="effect1_dropShadow_190_12634"/>
<feBlend mode="normal" in="SourceGraphic" in2="effect1_dropShadow_190_12634" result="shape"/>
</filter>
<linearGradient id="paint0_linear_190_12634" x1="267.539" y1="-23" x2="279.936" y2="138.631" gradientUnits="userSpaceOnUse">
<stop stop-color="white"/>
<stop offset="1" stop-color="#33EFFE"/>
</linearGradient>
<linearGradient id="paint1_linear_190_12634" x1="143.75" y1="91.3008" x2="143.75" y2="181.426" gradientUnits="userSpaceOnUse">
<stop stop-color="white"/>
<stop offset="1" stop-color="#B8B8FE"/>
</linearGradient>
<clipPath id="clip0_190_12634">
<rect width="300" height="300" rx="16" fill="white"/>
</clipPath>
</defs>
</svg>
