<svg width="152" height="108" viewBox="0 0 152 108" fill="none" xmlns="http://www.w3.org/2000/svg">
<g clip-path="url(#clip0_867_6006)">
<rect x="9" y="22" width="64" height="64" rx="3.41333" fill="#B8B8FE"/>
<g filter="url(#filter0_dd_867_6006)">
<path d="M58.6154 21.118H46.4444C45.7939 21.118 45.2666 21.6453 45.2666 22.2958V26.8109C45.2666 27.109 45.5083 27.3507 45.8064 27.3507C46.1046 27.3507 46.3463 27.5924 46.3463 27.8906V27.9396C46.3463 28.2649 46.6099 28.5285 46.9352 28.5285H58.7135C59.364 28.5285 59.8914 29.0559 59.8914 29.7064V32.5528C59.8914 33.2033 60.4187 33.7306 61.0692 33.7306H65.2898C65.9403 33.7306 66.4676 33.2033 66.4676 32.5528V32.1111C66.4676 31.4606 66.9949 30.9333 67.6454 30.9333H70.5409C71.1914 30.9333 71.7188 30.406 71.7188 29.7555V29.7064C71.7188 29.0559 72.2461 28.5285 72.8966 28.5285H85.7055C86.356 28.5285 86.8834 28.0012 86.8834 27.3507V22.6762C86.8834 22.3848 86.6472 22.1486 86.3558 22.1486C86.0742 22.1486 85.8422 21.9274 85.8288 21.6461L85.8282 21.6333C85.8145 21.3448 85.5766 21.118 85.2878 21.118H72.8966C72.2461 21.118 71.7188 20.5907 71.7188 19.9402V18.2716C71.7188 17.6211 71.1914 17.0938 70.5409 17.0938H60.971C60.3205 17.0938 59.7932 17.6211 59.7932 18.2716V19.9402C59.7932 20.5907 59.2659 21.118 58.6154 21.118Z" fill="url(#paint0_linear_867_6006)"/>
<path d="M58.6154 21.118H46.4444C45.7939 21.118 45.2666 21.6453 45.2666 22.2958V26.8109C45.2666 27.109 45.5083 27.3507 45.8064 27.3507C46.1046 27.3507 46.3463 27.5924 46.3463 27.8906V27.9396C46.3463 28.2649 46.6099 28.5285 46.9352 28.5285H58.7135C59.364 28.5285 59.8914 29.0559 59.8914 29.7064V32.5528C59.8914 33.2033 60.4187 33.7306 61.0692 33.7306H65.2898C65.9403 33.7306 66.4676 33.2033 66.4676 32.5528V32.1111C66.4676 31.4606 66.9949 30.9333 67.6454 30.9333H70.5409C71.1914 30.9333 71.7188 30.406 71.7188 29.7555V29.7064C71.7188 29.0559 72.2461 28.5285 72.8966 28.5285H85.7055C86.356 28.5285 86.8834 28.0012 86.8834 27.3507V22.6762C86.8834 22.3848 86.6472 22.1486 86.3558 22.1486C86.0742 22.1486 85.8422 21.9274 85.8288 21.6461L85.8282 21.6333C85.8145 21.3448 85.5766 21.118 85.2878 21.118H72.8966C72.2461 21.118 71.7188 20.5907 71.7188 19.9402V18.2716C71.7188 17.6211 71.1914 17.0938 70.5409 17.0938H60.971C60.3205 17.0938 59.7932 17.6211 59.7932 18.2716V19.9402C59.7932 20.5907 59.2659 21.118 58.6154 21.118Z" fill="#A2A2F6"/>
</g>
<g filter="url(#filter1_dd_867_6006)">
<path d="M6.74579 78.1513H-6.46182C-7.11231 78.1513 -7.63965 78.6786 -7.63965 79.3291V84.2504C-7.63965 84.5698 -7.38071 84.8288 -7.06128 84.8288C-6.74186 84.8288 -6.48292 85.0877 -6.48292 85.4071V85.4597C-6.48292 85.8082 -6.20044 86.0907 -5.85197 86.0907H6.85095C7.50145 86.0907 8.02878 86.618 8.02878 87.2685V90.4862C8.02878 91.1367 8.55611 91.664 9.20661 91.664H13.8965C14.547 91.664 15.0743 91.1367 15.0743 90.4862V89.8448C15.0743 89.1943 15.6016 88.667 16.2521 88.667H19.5224C20.1729 88.667 20.7002 88.1397 20.7002 87.4892V87.2685C20.7002 86.618 21.2276 86.0907 21.8781 86.0907H35.7692C36.4197 86.0907 36.947 85.5633 36.947 84.9128V79.8207C36.947 79.5085 36.694 79.2554 36.3818 79.2554C36.0801 79.2554 35.8316 79.0185 35.8172 78.7171L35.8166 78.7034C35.8019 78.3943 35.547 78.1513 35.2376 78.1513H21.8781C21.2276 78.1513 20.7002 77.624 20.7002 76.9735V75.0177C20.7002 74.3672 20.1729 73.8398 19.5224 73.8398H9.10146C8.45096 73.8398 7.92362 74.3672 7.92362 75.0177V76.9735C7.92362 77.624 7.39629 78.1513 6.74579 78.1513Z" fill="url(#paint1_linear_867_6006)"/>
<path d="M6.74579 78.1513H-6.46182C-7.11231 78.1513 -7.63965 78.6786 -7.63965 79.3291V84.2504C-7.63965 84.5698 -7.38071 84.8288 -7.06128 84.8288C-6.74186 84.8288 -6.48292 85.0877 -6.48292 85.4071V85.4597C-6.48292 85.8082 -6.20044 86.0907 -5.85197 86.0907H6.85095C7.50145 86.0907 8.02878 86.618 8.02878 87.2685V90.4862C8.02878 91.1367 8.55611 91.664 9.20661 91.664H13.8965C14.547 91.664 15.0743 91.1367 15.0743 90.4862V89.8448C15.0743 89.1943 15.6016 88.667 16.2521 88.667H19.5224C20.1729 88.667 20.7002 88.1397 20.7002 87.4892V87.2685C20.7002 86.618 21.2276 86.0907 21.8781 86.0907H35.7692C36.4197 86.0907 36.947 85.5633 36.947 84.9128V79.8207C36.947 79.5085 36.694 79.2554 36.3818 79.2554C36.0801 79.2554 35.8316 79.0185 35.8172 78.7171L35.8166 78.7034C35.8019 78.3943 35.547 78.1513 35.2376 78.1513H21.8781C21.2276 78.1513 20.7002 77.624 20.7002 76.9735V75.0177C20.7002 74.3672 20.1729 73.8398 19.5224 73.8398H9.10146C8.45096 73.8398 7.92362 74.3672 7.92362 75.0177V76.9735C7.92362 77.624 7.39629 78.1513 6.74579 78.1513Z" fill="#A2A2F6"/>
</g>
<g filter="url(#filter2_dd_867_6006)">
<path d="M6.35461 20.7719H-4.71934C-5.31121 20.7719 -5.79102 21.2517 -5.79102 21.8436V25.9517C-5.79102 26.2229 -5.57111 26.4428 -5.29983 26.4428C-5.02856 26.4428 -4.80865 26.6627 -4.80865 26.934V26.9787C-4.80865 27.2746 -4.56875 27.5145 -4.27281 27.5145H6.44392C7.03579 27.5145 7.51559 27.9943 7.51559 28.5862V31.1761C7.51559 31.7679 7.9954 32.2477 8.58726 32.2477H12.4274C13.0193 32.2477 13.4991 31.7679 13.4991 31.1761V30.7742C13.4991 30.1823 13.9789 29.7025 14.5708 29.7025H17.2053C17.7972 29.7025 18.277 29.2227 18.277 28.6308V28.5862C18.277 27.9943 18.7568 27.5145 19.3486 27.5145H31.0031C31.595 27.5145 32.0748 27.0347 32.0748 26.4428V22.1896C32.0748 21.9245 31.8599 21.7096 31.5947 21.7096C31.3385 21.7096 31.1275 21.5084 31.1153 21.2524L31.1147 21.2408C31.1022 20.9783 30.8858 20.7719 30.623 20.7719H19.3486C18.7568 20.7719 18.277 20.2921 18.277 19.7002V18.182C18.277 17.5902 17.7972 17.1104 17.2053 17.1104H8.49796C7.90609 17.1104 7.42628 17.5902 7.42628 18.182V19.7002C7.42628 20.2921 6.94648 20.7719 6.35461 20.7719Z" fill="url(#paint2_linear_867_6006)"/>
<path d="M6.35461 20.7719H-4.71934C-5.31121 20.7719 -5.79102 21.2517 -5.79102 21.8436V25.9517C-5.79102 26.2229 -5.57111 26.4428 -5.29983 26.4428C-5.02856 26.4428 -4.80865 26.6627 -4.80865 26.934V26.9787C-4.80865 27.2746 -4.56875 27.5145 -4.27281 27.5145H6.44392C7.03579 27.5145 7.51559 27.9943 7.51559 28.5862V31.1761C7.51559 31.7679 7.9954 32.2477 8.58726 32.2477H12.4274C13.0193 32.2477 13.4991 31.7679 13.4991 31.1761V30.7742C13.4991 30.1823 13.9789 29.7025 14.5708 29.7025H17.2053C17.7972 29.7025 18.277 29.2227 18.277 28.6308V28.5862C18.277 27.9943 18.7568 27.5145 19.3486 27.5145H31.0031C31.595 27.5145 32.0748 27.0347 32.0748 26.4428V22.1896C32.0748 21.9245 31.8599 21.7096 31.5947 21.7096C31.3385 21.7096 31.1275 21.5084 31.1153 21.2524L31.1147 21.2408C31.1022 20.9783 30.8858 20.7719 30.623 20.7719H19.3486C18.7568 20.7719 18.277 20.2921 18.277 19.7002V18.182C18.277 17.5902 17.7972 17.1104 17.2053 17.1104H8.49796C7.90609 17.1104 7.42628 17.5902 7.42628 18.182V19.7002C7.42628 20.2921 6.94648 20.7719 6.35461 20.7719Z" fill="#A2A2F6"/>
</g>
<g filter="url(#filter3_d_867_6006)">
<path d="M73.9983 82.9866H86.7361C87.4169 82.9866 87.9688 82.4347 87.9688 81.7539V77.0285C87.9688 76.7165 87.7158 76.4636 87.4038 76.4636C87.0917 76.4636 86.8388 76.2106 86.8388 75.8986V75.8472C86.8388 75.5068 86.5628 75.2309 86.2224 75.2309H73.8955C73.2147 75.2309 72.6628 74.679 72.6628 73.9982V71.0192C72.6628 70.3384 72.111 69.7865 71.4302 69.7865H67.013C66.3322 69.7865 65.7803 70.3384 65.7803 71.0192V71.4814C65.7803 72.1622 65.2284 72.7141 64.5476 72.7141H61.5173C60.8365 72.7141 60.2846 73.266 60.2846 73.9468V73.9982C60.2846 74.679 59.7327 75.2309 59.0519 75.2309H45.6464C44.9656 75.2309 44.4137 75.7828 44.4137 76.4636V81.3558C44.4137 81.6607 44.6609 81.9079 44.9658 81.9079C45.2606 81.9079 45.5033 82.1394 45.5173 82.4338L45.518 82.4472C45.5324 82.7492 45.7813 82.9866 46.0836 82.9866H59.0519C59.7327 82.9866 60.2846 83.5384 60.2846 84.2192V85.9656C60.2846 86.6463 60.8365 87.1982 61.5173 87.1982H71.5329C72.2137 87.1982 72.7656 86.6463 72.7656 85.9656V84.2192C72.7656 83.5384 73.3175 82.9866 73.9983 82.9866Z" fill="url(#paint3_linear_867_6006)"/>
<path d="M73.9983 82.9866H86.7361C87.4169 82.9866 87.9688 82.4347 87.9688 81.7539V77.0285C87.9688 76.7165 87.7158 76.4636 87.4038 76.4636C87.0917 76.4636 86.8388 76.2106 86.8388 75.8986V75.8472C86.8388 75.5068 86.5628 75.2309 86.2224 75.2309H73.8955C73.2147 75.2309 72.6628 74.679 72.6628 73.9982V71.0192C72.6628 70.3384 72.111 69.7865 71.4302 69.7865H67.013C66.3322 69.7865 65.7803 70.3384 65.7803 71.0192V71.4814C65.7803 72.1622 65.2284 72.7141 64.5476 72.7141H61.5173C60.8365 72.7141 60.2846 73.266 60.2846 73.9468V73.9982C60.2846 74.679 59.7327 75.2309 59.0519 75.2309H45.6464C44.9656 75.2309 44.4137 75.7828 44.4137 76.4636V81.3558C44.4137 81.6607 44.6609 81.9079 44.9658 81.9079C45.2606 81.9079 45.5033 82.1394 45.5173 82.4338L45.518 82.4472C45.5324 82.7492 45.7813 82.9866 46.0836 82.9866H59.0519C59.7327 82.9866 60.2846 83.5384 60.2846 84.2192V85.9656C60.2846 86.6463 60.8365 87.1982 61.5173 87.1982H71.5329C72.2137 87.1982 72.7656 86.6463 72.7656 85.9656V84.2192C72.7656 83.5384 73.3175 82.9866 73.9983 82.9866Z" fill="#A2A2F6"/>
</g>
<g filter="url(#filter4_d_867_6006)">
<rect x="30.5938" y="41.8877" width="18.2519" height="18.2519" fill="#D9D9D9"/>
<rect x="30.5938" y="41.8877" width="18.2519" height="18.2519" fill="url(#paint4_linear_867_6006)"/>
<path d="M30.5937 39.2803H48.8456V41.8877H30.5937V39.2803ZM30.5937 60.1395H27.9863V41.8877H30.5937V60.1395ZM48.8456 60.1395V62.7469H30.5937V60.1395H48.8456ZM48.8456 60.1395H51.453V41.8877H48.8456V60.1395ZM37.1123 45.7988H34.5048V48.4062H37.1123V45.7988ZM42.3271 45.7988H44.9345V48.4062H42.3271V45.7988ZM35.8086 53.621V51.0136H33.2011V53.621H35.8086ZM43.6308 53.621V56.2284H35.8086V53.621H43.6308ZM43.6308 53.621H46.2382V51.0136H43.6308V53.621Z" fill="#A2A2F6"/>
</g>
</g>
<rect x="7.5" y="20.5" width="67" height="67" rx="4.91333" stroke="#A2A2F6" stroke-width="3"/>
<g filter="url(#filter5_d_867_6006)">
<g clip-path="url(#clip1_867_6006)">
<rect x="73.3066" y="16.0459" width="64" height="64" rx="3.41333" transform="rotate(12 73.3066 16.0459)" fill="#004EF3"/>
<g filter="url(#filter6_d_867_6006)">
<path d="M122.021 25.4988L110.116 22.9683C109.48 22.8331 108.854 23.2392 108.719 23.8755L107.78 28.2919C107.718 28.5835 107.905 28.8702 108.196 28.9322C108.488 28.9942 108.674 29.2808 108.612 29.5725L108.602 29.6205C108.534 29.9386 108.737 30.2513 109.055 30.3189L120.576 32.7678C121.213 32.903 121.619 33.5285 121.484 34.1648L120.892 36.949C120.757 37.5853 121.163 38.2107 121.799 38.346L125.927 39.2235C126.564 39.3587 127.189 38.9526 127.324 38.3163L127.416 37.8842C127.551 37.248 128.177 36.8418 128.813 36.977L131.645 37.579C132.282 37.7143 132.907 37.3081 133.042 36.6718L133.053 36.6238C133.188 35.9876 133.813 35.5814 134.45 35.7166L146.979 38.3798C147.615 38.515 148.24 38.1088 148.376 37.4725L149.347 32.9002C149.408 32.6152 149.226 32.335 148.941 32.2744C148.666 32.2159 148.485 31.9513 148.53 31.6734L148.532 31.6607C148.579 31.3757 148.393 31.1044 148.111 31.0443L135.99 28.468C135.354 28.3328 134.948 27.7073 135.083 27.0711L135.43 25.4389C135.565 24.8026 135.159 24.1772 134.523 24.0419L125.162 22.0522C124.526 21.917 123.9 22.3232 123.765 22.9595L123.418 24.5916C123.283 25.2279 122.657 25.634 122.021 25.4988Z" fill="url(#paint5_linear_867_6006)"/>
<path d="M122.021 25.4988L110.116 22.9683C109.48 22.8331 108.854 23.2392 108.719 23.8755L107.78 28.2919C107.718 28.5835 107.905 28.8702 108.196 28.9322C108.488 28.9942 108.674 29.2808 108.612 29.5725L108.602 29.6205C108.534 29.9386 108.737 30.2513 109.055 30.3189L120.576 32.7678C121.213 32.903 121.619 33.5285 121.484 34.1648L120.892 36.949C120.757 37.5853 121.163 38.2107 121.799 38.346L125.927 39.2235C126.564 39.3587 127.189 38.9526 127.324 38.3163L127.416 37.8842C127.551 37.248 128.177 36.8418 128.813 36.977L131.645 37.579C132.282 37.7143 132.907 37.3081 133.042 36.6718L133.053 36.6238C133.188 35.9876 133.813 35.5814 134.45 35.7166L146.979 38.3798C147.615 38.515 148.24 38.1088 148.376 37.4725L149.347 32.9002C149.408 32.6152 149.226 32.335 148.941 32.2744C148.666 32.2159 148.485 31.9513 148.53 31.6734L148.532 31.6607C148.579 31.3757 148.393 31.1044 148.111 31.0443L135.99 28.468C135.354 28.3328 134.948 27.7073 135.083 27.0711L135.43 25.4389C135.565 24.8026 135.159 24.1772 134.523 24.0419L125.162 22.0522C124.526 21.917 123.9 22.3232 123.765 22.9595L123.418 24.5916C123.283 25.2279 122.657 25.634 122.021 25.4988Z" fill="#004AD6"/>
</g>
<g filter="url(#filter7_d_867_6006)">
<path d="M59.4266 70.5011L46.5076 67.7551C45.8714 67.6198 45.2459 68.026 45.1107 68.6623L44.0875 73.476C44.0211 73.7885 44.2205 74.0956 44.533 74.162C44.8454 74.2284 45.0448 74.5355 44.9784 74.848L44.9675 74.8994C44.895 75.2403 45.1126 75.5753 45.4535 75.6478L57.8788 78.2888C58.5151 78.4241 58.9213 79.0495 58.786 79.6858L58.117 82.8332C57.9818 83.4695 58.388 84.0949 59.0242 84.2302L63.6116 85.2052C64.2479 85.3405 64.8734 84.9343 65.0086 84.298L65.1419 83.6707C65.2772 83.0344 65.9026 82.6283 66.5389 82.7635L69.7377 83.4434C70.374 83.5787 70.9994 83.1725 71.1347 82.5362L71.1806 82.3204C71.3158 81.6841 71.9413 81.2779 72.5775 81.4132L86.1651 84.3013C86.8014 84.4365 87.4268 84.0304 87.5621 83.3941L88.6208 78.4132C88.6857 78.1078 88.4908 77.8077 88.1855 77.7428C87.8904 77.6801 87.6965 77.3966 87.7452 77.0989L87.7474 77.0853C87.7972 76.7799 87.5985 76.4892 87.2958 76.4249L74.2282 73.6473C73.5919 73.512 73.1858 72.8866 73.321 72.2503L73.7276 70.3373C73.8629 69.701 73.4567 69.0755 72.8204 68.9403L62.6272 66.7736C61.9909 66.6384 61.3655 67.0446 61.2302 67.6808L60.8236 69.5939C60.6884 70.2302 60.0629 70.6363 59.4266 70.5011Z" fill="#004AD6"/>
</g>
<g filter="url(#filter8_d_867_6006)">
<path d="M70.9744 14.2943L60.1424 11.9918C59.5635 11.8688 58.9944 12.2384 58.8714 12.8173L58.0173 16.8356C57.9609 17.1009 58.1302 17.3618 58.3956 17.4182C58.6609 17.4746 58.8303 17.7354 58.7739 18.0007L58.7646 18.0444C58.7031 18.3339 58.8879 18.6184 59.1773 18.68L69.6599 20.9081C70.2388 21.0311 70.6084 21.6002 70.4853 22.1792L69.9469 24.7124C69.8238 25.2914 70.1934 25.8604 70.7723 25.9835L74.5286 26.7819C75.1075 26.905 75.6766 26.5354 75.7996 25.9565L75.8832 25.5634C76.0062 24.9844 76.5753 24.6149 77.1542 24.7379L79.7312 25.2857C80.3101 25.4087 80.8792 25.0392 81.0023 24.4603L81.0116 24.4166C81.1346 23.8376 81.7037 23.4681 82.2826 23.5911L93.6824 26.0142C94.2613 26.1373 94.8304 25.7677 94.9535 25.1888L95.8378 21.0285C95.8929 20.7692 95.7273 20.5143 95.468 20.4592C95.2174 20.4059 95.0528 20.1652 95.0941 19.9123L95.096 19.9008C95.1383 19.6414 94.9695 19.3946 94.7125 19.3399L83.6845 16.9959C83.1056 16.8728 82.736 16.3037 82.859 15.7248L83.1747 14.2398C83.2978 13.6608 82.9282 13.0918 82.3493 12.9687L73.8322 11.1583C73.2533 11.0353 72.6842 11.4048 72.5611 11.9838L72.2455 13.4688C72.1224 14.0477 71.5533 14.4173 70.9744 14.2943Z" fill="#004AD6"/>
</g>
<g filter="url(#filter9_d_867_6006)">
<path d="M124.205 89.214L136.664 91.8623C137.33 92.0039 137.985 91.5788 138.126 90.9129L139.109 86.2908C139.173 85.9856 138.979 85.6856 138.673 85.6207C138.368 85.5558 138.173 85.2558 138.238 84.9506L138.249 84.9004C138.32 84.5674 138.107 84.2401 137.774 84.1694L125.717 81.6064C125.051 81.4649 124.626 80.8103 124.767 80.1444L125.387 77.2305C125.528 76.5646 125.103 75.91 124.437 75.7685L120.116 74.8501C119.451 74.7085 118.796 75.1336 118.654 75.7995L118.558 76.2517C118.417 76.9176 117.762 77.3427 117.096 77.2012L114.132 76.5711C113.466 76.4296 112.812 76.8547 112.67 77.5206L112.659 77.5708C112.518 78.2367 111.863 78.6618 111.197 78.5203L98.0848 75.7331C97.4189 75.5916 96.7643 76.0167 96.6227 76.6826L95.6056 81.4679C95.5422 81.7662 95.7326 82.0594 96.0309 82.1228C96.3191 82.1841 96.5085 82.461 96.461 82.7518L96.4588 82.7651C96.4101 83.0634 96.6043 83.3474 96.8999 83.4102L109.585 86.1065C110.251 86.248 110.676 86.9026 110.534 87.5685L110.171 89.2767C110.03 89.9426 110.455 90.5972 111.121 90.7387L120.917 92.8211C121.583 92.9626 122.238 92.5375 122.379 91.8716L122.743 90.1635C122.884 89.4975 123.539 89.0725 124.205 89.214Z" fill="#004AD6"/>
</g>
<g filter="url(#filter10_d_867_6006)">
<path fill-rule="evenodd" clip-rule="evenodd" d="M107.436 43.3191L93.5963 40.3775L93.0969 42.7271L90.8111 42.2412L87.8692 56.0816L90.155 56.5675L89.6838 58.7847L103.523 61.7264L103.995 59.5092L106.276 59.9942L109.218 46.1538L106.936 45.6688L107.436 43.3191Z" fill="#D9D9D9"/>
<path fill-rule="evenodd" clip-rule="evenodd" d="M107.436 43.3191L93.5963 40.3775L93.0969 42.7271L90.8111 42.2412L87.8692 56.0816L90.155 56.5675L89.6838 58.7847L103.523 61.7264L103.995 59.5092L106.276 59.9942L109.218 46.1538L106.936 45.6688L107.436 43.3191Z" fill="url(#paint6_linear_867_6006)"/>
<path d="M94.1289 38.1379L107.901 41.0653L107.413 43.3607L93.641 40.4333L94.1289 38.1379ZM90.8577 42.2408L91.3456 39.9454L93.641 40.4333L93.1531 42.7287L90.8577 42.2408ZM87.9303 56.0131L90.8577 42.2408L88.5623 41.7529L85.6349 55.5252L87.9303 56.0131ZM89.7378 58.7964L90.2257 56.501L87.9303 56.0131L87.4424 58.3085L89.7378 58.7964ZM103.51 61.7238L103.022 64.0192L89.2499 61.0918L89.7378 58.7964L103.51 61.7238ZM106.293 59.9163L105.805 62.2117L103.51 61.7238L103.998 59.4284L106.293 59.9163ZM109.221 46.144L111.516 46.6319L108.589 60.4042L106.293 59.9163L109.221 46.144ZM109.221 46.144L109.709 43.8486L107.413 43.3607L106.925 45.6561L109.221 46.144ZM99.1355 42.8007L101.431 43.2886L100.943 45.584L104.386 46.3159L103.898 48.6113L97.012 47.1476L96.5241 49.4429L103.41 50.9066L101.947 57.7928L98.5035 57.061L98.0156 59.3563L95.7202 58.8684L96.2081 56.5731L92.765 55.8412L93.2529 53.5458L100.139 55.0095L100.627 52.7141L93.7408 51.2504L95.2045 44.3643L98.6476 45.0961L99.1355 42.8007Z" fill="#004AD6"/>
</g>
</g>
<rect x="72.1513" y="14.2668" width="67" height="67" rx="4.91333" transform="rotate(12 72.1513 14.2668)" stroke="#004AD6" stroke-width="3"/>
</g>
<defs>
<filter id="filter0_dd_867_6006" x="44.874" y="17.0938" width="42.4024" height="17.4731" filterUnits="userSpaceOnUse" color-interpolation-filters="sRGB">
<feFlood flood-opacity="0" result="BackgroundImageFix"/>
<feColorMatrix in="SourceAlpha" type="matrix" values="0 0 0 0 0 0 0 0 0 0 0 0 0 0 0 0 0 0 127 0" result="hardAlpha"/>
<feOffset dy="0.392611"/>
<feGaussianBlur stdDeviation="0.196305"/>
<feComposite in2="hardAlpha" operator="out"/>
<feColorMatrix type="matrix" values="0 0 0 0 0 0 0 0 0 0 0 0 0 0 0 0 0 0 0.25 0"/>
<feBlend mode="normal" in2="BackgroundImageFix" result="effect1_dropShadow_867_6006"/>
<feColorMatrix in="SourceAlpha" type="matrix" values="0 0 0 0 0 0 0 0 0 0 0 0 0 0 0 0 0 0 127 0" result="hardAlpha"/>
<feOffset dy="0.836363"/>
<feComposite in2="hardAlpha" operator="out"/>
<feColorMatrix type="matrix" values="0 0 0 0 0.478431 0 0 0 0 0.478431 0 0 0 0 1 0 0 0 1 0"/>
<feBlend mode="normal" in2="effect1_dropShadow_867_6006" result="effect2_dropShadow_867_6006"/>
<feBlend mode="normal" in="SourceGraphic" in2="effect2_dropShadow_867_6006" result="shape"/>
</filter>
<filter id="filter1_dd_867_6006" x="-8.03226" y="73.0034" width="45.3721" height="19.4458" filterUnits="userSpaceOnUse" color-interpolation-filters="sRGB">
<feFlood flood-opacity="0" result="BackgroundImageFix"/>
<feColorMatrix in="SourceAlpha" type="matrix" values="0 0 0 0 0 0 0 0 0 0 0 0 0 0 0 0 0 0 127 0" result="hardAlpha"/>
<feOffset dy="0.392611"/>
<feGaussianBlur stdDeviation="0.196305"/>
<feComposite in2="hardAlpha" operator="out"/>
<feColorMatrix type="matrix" values="0 0 0 0 0 0 0 0 0 0 0 0 0 0 0 0 0 0 0.25 0"/>
<feBlend mode="normal" in2="BackgroundImageFix" result="effect1_dropShadow_867_6006"/>
<feColorMatrix in="SourceAlpha" type="matrix" values="0 0 0 0 0 0 0 0 0 0 0 0 0 0 0 0 0 0 127 0" result="hardAlpha"/>
<feOffset dy="-0.8364"/>
<feComposite in2="hardAlpha" operator="out"/>
<feColorMatrix type="matrix" values="0 0 0 0 0.478431 0 0 0 0 0.478431 0 0 0 0 1 0 0 0 1 0"/>
<feBlend mode="normal" in2="effect1_dropShadow_867_6006" result="effect2_dropShadow_867_6006"/>
<feBlend mode="normal" in="SourceGraphic" in2="effect2_dropShadow_867_6006" result="shape"/>
</filter>
<filter id="filter2_dd_867_6006" x="-6.14824" y="17.1104" width="38.5807" height="15.8982" filterUnits="userSpaceOnUse" color-interpolation-filters="sRGB">
<feFlood flood-opacity="0" result="BackgroundImageFix"/>
<feColorMatrix in="SourceAlpha" type="matrix" values="0 0 0 0 0 0 0 0 0 0 0 0 0 0 0 0 0 0 127 0" result="hardAlpha"/>
<feOffset dy="0.357224"/>
<feGaussianBlur stdDeviation="0.178612"/>
<feComposite in2="hardAlpha" operator="out"/>
<feColorMatrix type="matrix" values="0 0 0 0 0 0 0 0 0 0 0 0 0 0 0 0 0 0 0.25 0"/>
<feBlend mode="normal" in2="BackgroundImageFix" result="effect1_dropShadow_867_6006"/>
<feColorMatrix in="SourceAlpha" type="matrix" values="0 0 0 0 0 0 0 0 0 0 0 0 0 0 0 0 0 0 127 0" result="hardAlpha"/>
<feOffset dy="0.76098"/>
<feComposite in2="hardAlpha" operator="out"/>
<feColorMatrix type="matrix" values="0 0 0 0 0.478431 0 0 0 0 0.478431 0 0 0 0 1 0 0 0 1 0"/>
<feBlend mode="normal" in2="effect1_dropShadow_867_6006" result="effect2_dropShadow_867_6006"/>
<feBlend mode="normal" in="SourceGraphic" in2="effect2_dropShadow_867_6006" result="shape"/>
</filter>
<filter id="filter3_d_867_6006" x="44.4141" y="68.9112" width="43.5547" height="18.287" filterUnits="userSpaceOnUse" color-interpolation-filters="sRGB">
<feFlood flood-opacity="0" result="BackgroundImageFix"/>
<feColorMatrix in="SourceAlpha" type="matrix" values="0 0 0 0 0 0 0 0 0 0 0 0 0 0 0 0 0 0 127 0" result="hardAlpha"/>
<feOffset dy="-0.875396"/>
<feComposite in2="hardAlpha" operator="out"/>
<feColorMatrix type="matrix" values="0 0 0 0 0.48 0 0 0 0 0.48 0 0 0 0 1 0 0 0 1 0"/>
<feBlend mode="normal" in2="BackgroundImageFix" result="effect1_dropShadow_867_6006"/>
<feBlend mode="normal" in="SourceGraphic" in2="effect1_dropShadow_867_6006" result="shape"/>
</filter>
<filter id="filter4_d_867_6006" x="27.9863" y="39.2803" width="23.4668" height="25.2719" filterUnits="userSpaceOnUse" color-interpolation-filters="sRGB">
<feFlood flood-opacity="0" result="BackgroundImageFix"/>
<feColorMatrix in="SourceAlpha" type="matrix" values="0 0 0 0 0 0 0 0 0 0 0 0 0 0 0 0 0 0 127 0" result="hardAlpha"/>
<feOffset dy="1.80513"/>
<feComposite in2="hardAlpha" operator="out"/>
<feColorMatrix type="matrix" values="0 0 0 0 0.478431 0 0 0 0 0.478431 0 0 0 0 1 0 0 0 1 0"/>
<feBlend mode="normal" in2="BackgroundImageFix" result="effect1_dropShadow_867_6006"/>
<feBlend mode="normal" in="SourceGraphic" in2="effect1_dropShadow_867_6006" result="shape"/>
</filter>
<filter id="filter5_d_867_6006" x="44.7338" y="0.779688" width="106.441" height="106.44" filterUnits="userSpaceOnUse" color-interpolation-filters="sRGB">
<feFlood flood-opacity="0" result="BackgroundImageFix"/>
<feColorMatrix in="SourceAlpha" type="matrix" values="0 0 0 0 0 0 0 0 0 0 0 0 0 0 0 0 0 0 127 0" result="hardAlpha"/>
<feMorphology radius="2.5" operator="dilate" in="SourceAlpha" result="effect1_dropShadow_867_6006"/>
<feOffset/>
<feGaussianBlur stdDeviation="5.2"/>
<feComposite in2="hardAlpha" operator="out"/>
<feColorMatrix type="matrix" values="0 0 0 0 0.424472 0 0 0 0 0.424472 0 0 0 0 0.688333 0 0 0 0.23 0"/>
<feBlend mode="normal" in2="BackgroundImageFix" result="effect1_dropShadow_867_6006"/>
<feBlend mode="normal" in="SourceGraphic" in2="effect1_dropShadow_867_6006" result="shape"/>
</filter>
<filter id="filter6_d_867_6006" x="107.769" y="22.0264" width="41.5908" height="18.0595" filterUnits="userSpaceOnUse" color-interpolation-filters="sRGB">
<feFlood flood-opacity="0" result="BackgroundImageFix"/>
<feColorMatrix in="SourceAlpha" type="matrix" values="0 0 0 0 0 0 0 0 0 0 0 0 0 0 0 0 0 0 127 0" result="hardAlpha"/>
<feOffset dy="0.836363"/>
<feComposite in2="hardAlpha" operator="out"/>
<feColorMatrix type="matrix" values="0 0 0 0 0 0 0 0 0 0.0980392 0 0 0 0 0.796078 0 0 0 1 0"/>
<feBlend mode="normal" in2="BackgroundImageFix" result="effect1_dropShadow_867_6006"/>
<feBlend mode="normal" in="SourceGraphic" in2="effect1_dropShadow_867_6006" result="shape"/>
</filter>
<filter id="filter7_d_867_6006" x="44.0752" y="65.9112" width="44.5576" height="19.3203" filterUnits="userSpaceOnUse" color-interpolation-filters="sRGB">
<feFlood flood-opacity="0" result="BackgroundImageFix"/>
<feColorMatrix in="SourceAlpha" type="matrix" values="0 0 0 0 0 0 0 0 0 0 0 0 0 0 0 0 0 0 127 0" result="hardAlpha"/>
<feOffset dy="-0.8364"/>
<feComposite in2="hardAlpha" operator="out"/>
<feColorMatrix type="matrix" values="0 0 0 0 0 0 0 0 0 0.0980392 0 0 0 0 0.796078 0 0 0 1 0"/>
<feBlend mode="normal" in2="BackgroundImageFix" result="effect1_dropShadow_867_6006"/>
<feBlend mode="normal" in="SourceGraphic" in2="effect1_dropShadow_867_6006" result="shape"/>
</filter>
<filter id="filter8_d_867_6006" x="58.0068" y="11.1348" width="37.8418" height="16.4319" filterUnits="userSpaceOnUse" color-interpolation-filters="sRGB">
<feFlood flood-opacity="0" result="BackgroundImageFix"/>
<feColorMatrix in="SourceAlpha" type="matrix" values="0 0 0 0 0 0 0 0 0 0 0 0 0 0 0 0 0 0 127 0" result="hardAlpha"/>
<feOffset dy="0.76098"/>
<feComposite in2="hardAlpha" operator="out"/>
<feColorMatrix type="matrix" values="0 0 0 0 0 0 0 0 0 0.0980392 0 0 0 0 0.796078 0 0 0 1 0"/>
<feBlend mode="normal" in2="BackgroundImageFix" result="effect1_dropShadow_867_6006"/>
<feBlend mode="normal" in="SourceGraphic" in2="effect1_dropShadow_867_6006" result="shape"/>
</filter>
<filter id="filter9_d_867_6006" x="95.5938" y="73.9474" width="43.5273" height="18.9008" filterUnits="userSpaceOnUse" color-interpolation-filters="sRGB">
<feFlood flood-opacity="0" result="BackgroundImageFix"/>
<feColorMatrix in="SourceAlpha" type="matrix" values="0 0 0 0 0 0 0 0 0 0 0 0 0 0 0 0 0 0 127 0" result="hardAlpha"/>
<feOffset dy="-0.875396"/>
<feComposite in2="hardAlpha" operator="out"/>
<feColorMatrix type="matrix" values="0 0 0 0 0 0 0 0 0 0.0980392 0 0 0 0 0.796078 0 0 0 1 0"/>
<feBlend mode="normal" in2="BackgroundImageFix" result="effect1_dropShadow_867_6006"/>
<feBlend mode="normal" in="SourceGraphic" in2="effect1_dropShadow_867_6006" result="shape"/>
</filter>
<filter id="filter10_d_867_6006" x="85.6348" y="38.1377" width="25.8818" height="28.0475" filterUnits="userSpaceOnUse" color-interpolation-filters="sRGB">
<feFlood flood-opacity="0" result="BackgroundImageFix"/>
<feColorMatrix in="SourceAlpha" type="matrix" values="0 0 0 0 0 0 0 0 0 0 0 0 0 0 0 0 0 0 127 0" result="hardAlpha"/>
<feOffset dy="2.16615"/>
<feComposite in2="hardAlpha" operator="out"/>
<feColorMatrix type="matrix" values="0 0 0 0 0 0 0 0 0 0.0980392 0 0 0 0 0.796078 0 0 0 1 0"/>
<feBlend mode="normal" in2="BackgroundImageFix" result="effect1_dropShadow_867_6006"/>
<feBlend mode="normal" in="SourceGraphic" in2="effect1_dropShadow_867_6006" result="shape"/>
</filter>
<linearGradient id="paint0_linear_867_6006" x1="66.075" y1="17.0937" x2="68.7197" y2="51.575" gradientUnits="userSpaceOnUse">
<stop stop-color="white"/>
<stop offset="1" stop-color="#33EFFE"/>
</linearGradient>
<linearGradient id="paint1_linear_867_6006" x1="14.6537" y1="73.8398" x2="17.4871" y2="110.782" gradientUnits="userSpaceOnUse">
<stop stop-color="white"/>
<stop offset="1" stop-color="#33EFFE"/>
</linearGradient>
<linearGradient id="paint2_linear_867_6006" x1="13.1419" y1="17.1104" x2="15.5482" y2="48.4837" gradientUnits="userSpaceOnUse">
<stop stop-color="white"/>
<stop offset="1" stop-color="#33EFFE"/>
</linearGradient>
<linearGradient id="paint3_linear_867_6006" x1="66.1912" y1="87.1982" x2="63.4233" y2="51.1111" gradientUnits="userSpaceOnUse">
<stop stop-color="white"/>
<stop offset="1" stop-color="#33EFFE"/>
</linearGradient>
<linearGradient id="paint4_linear_867_6006" x1="39.7197" y1="44.1692" x2="39.7197" y2="57.8771" gradientUnits="userSpaceOnUse">
<stop stop-color="white"/>
<stop offset="1" stop-color="#33EFFE"/>
</linearGradient>
<linearGradient id="paint5_linear_867_6006" x1="130.154" y1="23.1134" x2="125.572" y2="57.391" gradientUnits="userSpaceOnUse">
<stop stop-color="white"/>
<stop offset="1" stop-color="#33EFFE"/>
</linearGradient>
<linearGradient id="paint6_linear_867_6006" x1="99.9342" y1="44.2506" x2="97.0169" y2="57.9757" gradientUnits="userSpaceOnUse">
<stop stop-color="white"/>
<stop offset="1" stop-color="#B8B8FE"/>
</linearGradient>
<clipPath id="clip0_867_6006">
<rect x="9" y="22" width="64" height="64" rx="3.41333" fill="white"/>
</clipPath>
<clipPath id="clip1_867_6006">
<rect x="73.3066" y="16.0459" width="64" height="64" rx="3.41333" transform="rotate(12 73.3066 16.0459)" fill="white"/>
</clipPath>
</defs>
</svg>
