<svg width="16" height="14" viewBox="0 0 16 14" fill="none" xmlns="http://www.w3.org/2000/svg">
<path d="M7.33333 0H3.33333V1.33333H2V5.33333H3.33333V6.66667H7.33333V5.33333H3.33333V1.33333H7.33333V0ZM7.33333 1.33333H8.66667V5.33333H7.33333V1.33333ZM0 9.33333H1.33333V12H9.33333V13.3333H0V9.33333ZM1.33333 9.33333H9.33333V8H1.33333V9.33333ZM10.6667 9.33333H9.33333V13.3333H10.6667V9.33333ZM10 0H12.6667V1.33333H10V0ZM12.6667 5.33333H10V6.66667H12.6667V5.33333ZM12.6667 1.33333H14V5.33333H12.6667V1.33333ZM16 9.33333H14.6667V12H12V13.3333H16V9.33333ZM12 8H14.6667V9.33333H12V8Z" fill="#004EF3"/>
</svg>
